# xmcd
#
# Track frame offsets: 
#        150
#        22097
#        33593
#        55260
#        73691
#        92142
#        110231
#        123503
#        150360
#        163937
#        180284
#        215598
#        230278
#        251384
#        270294
#
# Disc length: 3836 seconds
#
# Revision: 0
# Processed by: cddbd v1.5.2PL0 Copyright (c) Steve Scherf et al.
# Submitted via: ExactAudioCopy v0.95b4
#
DISCID=cb0efa0f
DTITLE=Odetta - Blues Everywhere I Go
DYEAR=1999
DGENRE=Blues
TTITLE0=Blues Everywhere I Go
TTITLE1=Please Send Me Someone To Love
TTITLE2=Dink's Blues
TTITLE3=Unemployment Blues
TTITLE4=TB Blues
TTITLE5=Trouble Everywhere - I've Been Living With The Blues
TTITLE6=Can't Afford To Lose My Man
TTITLE7=Homeless Blues
TTITLE8=Oh Papa
TTITLE9=Look The World Over
TTITLE10=Careless Lov - St. Louis Blues
TTITLE11=Hear Me Talking To You
TTITLE12=Rich Man Blues
TTITLE13=W.P.A. Blues
TTITLE14=You Gotta Know How
EXTD=
EXTT0=
EXTT1=
EXTT2=
EXTT3=
EXTT4=
EXTT5=
EXTT6=
EXTT7=
EXTT8=
EXTT9=
EXTT10=
EXTT11=
EXTT12=
EXTT13=
EXTT14=
PLAYORDER=
